<?xml version="1.0" encoding="UTF-8"?>
<svg width="350px" height="350px" viewBox="0 0 350 350" version="1.1" xmlns="http://www.w3.org/2000/svg" xmlns:xlink="http://www.w3.org/1999/xlink">
    <!-- Generator: Sketch 50.2 (55047) - http://www.bohemiancoding.com/sketch -->
    <title>Group 13</title>
    <desc>Created with Sketch.</desc>
    <defs></defs>
    <g id="Page-1" stroke="none" stroke-width="1" fill="none" fill-rule="evenodd">
        <g id="styleguide_identity_sp_section-expanded" transform="translate(-526.000000, -3783.000000)">
            <g id="Group-13" transform="translate(526.000000, 3783.000000)">
                <g id="Group-5-Copy-2" fill="#FFFFFF">
                    <rect id="Rectangle-2-Copy-4" x="0" y="0" width="350" height="350" rx="41"></rect>
                </g>
                <path d="M156.801655,261.039296 C140.893154,261.039296 126.356423,255.309872 115.886387,244.870502 C106.289976,235.333928 100.763999,222.495082 100.763999,209.671195 C100.763999,183.716754 111.786782,170.385746 136.500346,150.286387 L138.907303,148.30652 L208.092716,233.553768 L206.713466,235.505961 C194.807334,252.214038 177.535289,261.039296 156.801655,261.039296 M218.032444,212.550118 L138.756961,114.85147 C137.143597,112.918725 135.226559,109.62094 135.226559,104.9641 C135.226559,97.4358163 140.580504,91.1341978 147.674219,89.6786548 L147.674219,68.4797858 C129.045363,70.0856701 114.317153,85.824383 114.317153,104.9641 C114.317153,113.423602 117.240954,121.653479 122.565729,128.158544 L125.778993,131.955222 L123.314443,133.973984 C113.019431,142.300348 102.422988,151.507817 94.4870629,162.417658 C84.5084407,176.170519 79.8516007,191.191184 79.8516007,209.671195 C79.8516007,228.018067 87.6169898,246.287151 101.137234,259.792436 C115.575233,274.129459 135.334266,282.036214 156.801655,282.036214 C181.562341,282.036214 203.778445,271.833202 219.364573,253.334492 L221.80444,250.442853 L243.854495,277.629195 L270.851601,277.629195 L233.219158,231.229836 L233.942441,229.486326 C240.406369,214.34075 243.797649,196.082138 243.797649,176.628275 L243.797649,144.818004 L243.609162,126.582578 C231.157014,126.582578 231.320071,126.559391 222.881512,126.582578 L222.885999,178.793638 C222.847105,179.2858 222.110358,202.155626 218.032444,212.550118" id="Fill-1-Copy-2" fill="#000000"></path>
            </g>
        </g>
    </g>
</svg>