<?xml version="1.0" encoding="UTF-8"?>
<svg width="1200px" height="350px" viewBox="0 0 1200 350" version="1.1" xmlns="http://www.w3.org/2000/svg" xmlns:xlink="http://www.w3.org/1999/xlink">
    <!-- Generator: Sketch 50.2 (55047) - http://www.bohemiancoding.com/sketch -->
    <title>Group 14</title>
    <desc>Created with Sketch.</desc>
    <defs></defs>
    <g id="Page-1" stroke="none" stroke-width="1" fill="none" fill-rule="evenodd">
        <g id="styleguide_identity_sp_section-expanded" transform="translate(-118.000000, -3404.000000)">
            <g id="Group-14" transform="translate(118.000000, 3404.000000)">
                <rect id="Rectangle-2" fill="#FFFFFF" x="0" y="0" width="1200" height="350"></rect>
                <path d="M580.245599,274.117696 C561.863806,274.117696 545.067053,267.497519 532.969242,255.435143 C521.880879,244.41592 515.49578,229.581021 515.49578,214.763407 C515.49578,184.773835 528.232273,169.370257 556.788049,146.146056 L559.569215,143.858379 L639.51087,242.358998 L637.917187,244.614698 C624.160011,263.920377 604.202686,274.117696 580.245599,274.117696 M650.995925,218.089916 L559.3955,105.20208 C557.531307,102.968851 555.316227,99.1583605 555.316227,93.7775227 C555.316227,85.0788183 561.502548,77.7974885 569.699122,76.1156526 L569.699122,51.621 C548.174042,53.4765507 531.15604,71.662158 531.15604,93.7775227 C531.15604,103.552222 534.534404,113.061595 540.68702,120.578002 L544.39985,124.964949 L541.552137,127.297567 C529.656561,136.918429 517.412692,147.557381 508.24297,160.163372 C496.712974,176.054388 491.332136,193.410313 491.332136,214.763407 C491.332136,235.962663 500.304808,257.072038 515.927042,272.676986 C532.609713,289.242984 555.440679,298.379 580.245599,298.379 C608.855823,298.379 634.525859,286.589728 652.535159,265.215028 L655.354352,261.873826 L680.832524,293.286823 L712.026864,293.286823 L668.543714,239.673765 L669.379446,237.659192 C676.848319,220.158937 680.766841,199.061662 680.766841,176.583311 L680.766841,139.827504 L680.549049,118.757021 C666.160969,118.757021 666.349376,118.730229 656.598876,118.757021 L656.604061,179.085323 C656.55912,179.654001 655.707831,206.079395 650.995925,218.089916" id="Fill-1" fill="#7DB0DE"></path>
            </g>
        </g>
    </g>
</svg>