<?xml version="1.0" encoding="UTF-8"?>
<svg width="350px" height="350px" viewBox="0 0 350 350" version="1.1" xmlns="http://www.w3.org/2000/svg" xmlns:xlink="http://www.w3.org/1999/xlink">
    <!-- Generator: Sketch 50.2 (55047) - http://www.bohemiancoding.com/sketch -->
    <title>Group 15</title>
    <desc>Created with Sketch.</desc>
    <defs></defs>
    <g id="Page-1" stroke="none" stroke-width="1" fill="none" fill-rule="evenodd">
        <g id="styleguide_identity_sp_section-expanded" transform="translate(-129.000000, -3783.000000)">
            <g id="Group-15" transform="translate(129.000000, 3783.000000)">
                <g id="Group-5" fill="#7AB1E8">
                    <rect id="Rectangle-2-Copy-4" x="0" y="0" width="350" height="350" rx="41"></rect>
                </g>
                <path d="M157.413201,258.211299 C142.029164,258.211299 127.971673,252.670759 117.846808,242.57555 C108.566767,233.353373 103.222968,220.937792 103.222968,208.536677 C103.222968,183.43789 113.882357,170.546372 137.781176,151.10964 L140.108781,149.195044 L207.013322,231.6319 L205.679542,233.519734 C194.165926,249.676988 177.463298,258.211299 157.413201,258.211299 M216.625362,211.320689 L139.963396,116.842925 C138.403221,114.973897 136.549383,111.784832 136.549383,107.281516 C136.549383,100.001422 141.726821,93.907552 148.586674,92.4999946 L148.586674,72 C130.571966,73.5529422 116.329308,88.7727886 116.329308,107.281516 C116.329308,115.46213 119.156719,123.420687 124.305949,129.711297 L127.41328,133.382808 L125.02998,135.335016 C115.074369,143.386881 104.827265,152.290802 97.1529672,162.840972 C87.5033155,176.140436 83,190.665906 83,208.536677 C83,226.278698 90.5093834,243.945495 103.583898,257.005544 C117.545912,270.869911 136.653539,278.516 157.413201,278.516 C181.357588,278.516 202.841282,268.649356 217.913574,250.760503 L220.273004,247.964194 L241.596123,274.254269 L267.703201,274.254269 L231.311407,229.384582 L232.010846,227.698552 C238.261674,213.052288 241.541152,195.395617 241.541152,176.5831 L241.541152,145.821535 L241.358878,128.187287 C229.317247,128.187287 229.474928,128.164864 221.314568,128.187287 L221.318908,178.677077 C221.281295,179.153013 220.568837,201.268878 216.625362,211.320689" id="Fill-1" fill="#FFFFFF"></path>
            </g>
        </g>
    </g>
</svg>